<svg width="24" height="24" viewBox="0 0 24 24" fill="none" xmlns="http://www.w3.org/2000/svg">
<path d="M19.8284 10.1716C20.4755 9.52453 20.4755 8.47547 19.8284 7.82843L18.5 6.5C17.9465 5.94646 17 6.3385 17 7.12132C17 7.6066 16.6066 8 16.1213 8H11C10.4477 8 10 8.44772 10 9C10 9.55228 10.4477 10 11 10H16.1213C16.6066 10 17 10.3934 17 10.8787C17 11.6615 17.9465 12.0535 18.5 11.5L19.8284 10.1716ZM7 13.1213C7 12.3385 6.05354 11.9465 5.5 12.5L4.17157 13.8284C3.52453 14.4755 3.52453 15.5245 4.17157 16.1716L5.5 17.5C6.05354 18.0535 7 17.6615 7 16.8787C7 16.3934 7.3934 16 7.87868 16H13C13.5523 16 14 15.5523 14 15C14 14.4477 13.5523 14 13 14H7.87868C7.3934 14 7 13.6066 7 13.1213Z" fill="#2D9CDB"/>
</svg>
